<svg xmlns="http://www.w3.org/2000/svg" viewBox="0 0 96 96" role="img" aria-label="SG notification glyph">
  <g fill="#FFFFFF">
    <path d="M30 22c-8 0-14 5-14 12c0 7 5 10 14 13c7 2 9 3 9 6c0 3-3 5-7 5c-5 0-9-2-13-6l-6 7c5 5 11 8 19 8c10 0 18-6 18-14c0-8-5-11-15-14c-6-2-8-3-8-6c0-3 3-5 7-5c4 0 8 2 11 5l6-7c-4-4-10-6-17-6z"/>
    <path d="M75 22c-13 0-23 10-23 23s10 23 23 23c7 0 13-3 18-8v-18H73v9h10v5c-2 1-5 2-8 2c-8 0-13-6-13-13c0-8 5-13 13-13c5 0 8 2 11 5l7-7c-5-5-10-8-18-8z"/>
  </g>
</svg>
