<svg width="512" height="512" viewBox="0 0 512 512" fill="none" xmlns="http://www.w3.org/2000/svg">
  <rect x="170" y="358" width="208" height="96" rx="48" fill="#E0BE28"/>
  <rect x="156" y="332" width="250" height="110" rx="55" fill="#F2CF2E"/>
  <path d="M92 162C92 128.863 118.863 102 152 102C185.137 102 212 128.863 212 162V308C212 344.451 182.451 374 146 374C109.549 374 80 344.451 80 308V174C80 167.373 85.3726 162 92 162Z" fill="#F6D652"/>
  <path d="M206 114C206 83.0721 231.072 58 262 58C292.928 58 318 83.0721 318 114V320C318 365.287 281.287 402 236 402C190.713 402 154 365.287 154 320V166C154 159.373 159.373 154 166 154H194C200.627 154 206 159.373 206 166V114Z" fill="#F9DB57"/>
  <path d="M320 124C320 91.9675 345.968 66 378 66C410.033 66 436 91.9675 436 124V310C436 358.049 397.049 397 349 397C300.951 397 262 358.049 262 310V168C262 161.373 267.373 156 274 156H308C314.627 156 320 161.373 320 168V124Z" fill="#F6D652"/>
  <path d="M30 206C30 189.431 43.4315 176 60 176H74C80.6274 176 86 181.373 86 188V344C86 350.627 80.6274 356 74 356H60C43.4315 356 30 342.569 30 326V206Z" fill="#F6D652"/>
  <path d="M404 176C404 159.431 417.431 146 434 146H446C469.196 146 488 164.804 488 188V338C488 351.255 477.255 362 464 362C451.658 362 441.306 352.621 440.089 340.339L428 218V308C428 332.301 418.34 355.605 401.147 372.78L398 375.923L404 176Z" fill="#F2CF2E"/>
  <path d="M92 162C92 128.863 118.863 102 152 102C165.026 102 177.082 106.149 186.923 113.198C164.676 118.498 148 138.514 148 162V308C148 334.583 163.725 357.492 186.386 367.963C174.885 372.104 160.121 374.502 146 374.502C109.549 374.502 80 344.953 80 308.502V174C80 167.373 85.3726 162 92 162Z" fill="#EDC93D"/>
  <path d="M206 114C206 83.0721 231.072 58 262 58C275.623 58 288.111 62.8647 297.822 70.9486C276.491 79.3745 261.397 100.146 261.397 124.444V320.444C261.397 356.756 285.007 387.553 317.693 398.335C306.477 400.805 294.829 402 282.897 402C237.609 402 200.897 365.287 200.897 320V166C200.897 159.373 206.269 154 212.897 154H206V114Z" fill="#F2CF2E"/>
  <path d="M320 124C320 91.9675 345.968 66 378 66C391.738 66 404.36 70.7725 414.308 78.7414C392.772 87.1192 377.5 108.041 377.5 132.53V312.53C377.5 350.507 401.822 382.803 435.756 394.68C427.803 396.522 419.518 397.5 411 397.5C362.951 397.5 324 358.549 324 310.5V168C324 161.373 329.373 156 336 156H320V124Z" fill="#EDC93D"/>
  <path d="M176 378C176 409.48 201.52 435 233 435H350C373.748 435 393 415.748 393 392V382.5C393 405.972 373.972 425 350.5 425H234.5C203.849 425 179 400.151 179 369.5V362C177.033 366.865 176 372.18 176 378Z" fill="#D9B61C"/>
  <rect x="93" y="171" width="27" height="173" rx="13.5" fill="black"/>
  <rect x="206" y="139" width="17" height="207" rx="8.5" fill="black"/>
  <rect x="330" y="149" width="17" height="193" rx="8.5" fill="black"/>
  <path d="M205 383C220.006 398.665 240.971 407 262.5 407C283.579 407 304.228 398.896 319 383" stroke="black" stroke-width="12" stroke-linecap="round"/>
  <path d="M319 383C334.171 398.867 354.889 407 376 407C394.662 407 412.772 400.666 427 389" stroke="black" stroke-width="12" stroke-linecap="round"/>
  <path d="M425 176V281" stroke="black" stroke-width="12" stroke-linecap="round"/>
</svg>
